<?xml version="1.0" encoding="utf-8"?>
<!-- Generator: Adobe Illustrator 22.1.0, SVG Export Plug-In . SVG Version: 6.00 Build 0)  -->
<svg version="1.1" id="Layer_1" xmlns="http://www.w3.org/2000/svg" xmlns:xlink="http://www.w3.org/1999/xlink" x="0px" y="0px"
	 viewBox="0 0 875.5 824.7" style="enable-background:new 0 0 875.5 824.7;" xml:space="preserve">
<style type="text/css">
	.st0{fill:#E9F6FF;}
	.st1{fill:#FFFFFF;}
	.st2{fill:#C5D9EC;}
	.st3{fill:#CBDB36;}
	.st4{fill:#343072;}
	.st5{fill:#FFCBBC;}
	.st6{fill:#FF9802;}
	.st7{fill:#34316D;}
	.st8{fill:#3A40B4;}
</style>
<g>
	<path class="st0" d="M524.8,0C636.8,0,753,65.2,782,163.2s15.5,129,48.5,194s45,91,45,119.5c0,68-67.5,108-104.5,158
		s-85.5,190-189,190s-161.1-53.5-193.8-72.5s-78.7-17-134.2-17.5s-94.5-18.5-129.5-40s-52-66.5-50-93s8.5-97.5-8.5-128
		s-40-68-40-124c0-106,108-167,140.5-174s86.3-16.3,113.3-44.8S392.2,0,524.8,0z"/>
	<path class="st1" d="M668.5,134.3H344c-22.1,0-40,17.9-40,40v481.3c0,22.1,17.9,40,40,40h324.4c22.1,0,40-17.9,40-40V174.4
		C708.5,152.3,690.6,134.3,668.5,134.3z"/>
	<g>
		<g>
			<g>
				<path class="st2" d="M388,296.5c-25.8,0-46.7-21-46.7-46.7c0-25.8,21-46.7,46.7-46.7c25.8,0,46.7,21,46.7,46.7
					C434.7,275.5,413.7,296.5,388,296.5z M388,207c-23.5,0-42.7,19.2-42.7,42.7s19.2,42.7,42.7,42.7c23.5,0,42.7-19.2,42.7-42.7
					S411.5,207,388,207z"/>
			</g>
			<g>
				<g>
					<path class="st3" d="M381.2,274.9C381.1,274.9,381.1,274.9,381.2,274.9c-1.9,0-3.7-0.8-5-2.1L359.8,256
						c-2.7-2.8-2.6-7.2,0.1-9.9c2.8-2.7,7.2-2.6,9.9,0.1l11.3,11.6l25.4-25.5c2.7-2.7,7.2-2.7,9.9,0c2.7,2.7,2.7,7.2,0,9.9
						l-30.4,30.5C384.8,274.1,383,274.9,381.2,274.9z"/>
				</g>
			</g>
			<g>
				<path class="st2" d="M653.4,239.7H459.5c-4.4,0-8-3.6-8-8s3.6-8,8-8h193.9c4.4,0,8,3.6,8,8S657.8,239.7,653.4,239.7z"/>
			</g>
			<g>
				<path class="st2" d="M619.1,275.9H459.5c-4.4,0-8-3.6-8-8s3.6-8,8-8h159.6c4.4,0,8,3.6,8,8S623.5,275.9,619.1,275.9z"/>
			</g>
		</g>
	</g>
	<g>
		<g>
			<g>
				<path class="st2" d="M388,411.8c-25.8,0-46.7-21-46.7-46.7c0-25.8,21-46.7,46.7-46.7c25.8,0,46.7,21,46.7,46.7
					C434.7,390.8,413.7,411.8,388,411.8z M388,322.4c-23.5,0-42.7,19.2-42.7,42.7s19.2,42.7,42.7,42.7c23.5,0,42.7-19.2,42.7-42.7
					S411.5,322.4,388,322.4z"/>
			</g>
			<g>
				<g>
					<path class="st3" d="M381.2,390.2C381.1,390.2,381.1,390.2,381.2,390.2c-1.9,0-3.7-0.8-5-2.1l-16.3-16.7
						c-2.7-2.8-2.6-7.2,0.1-9.9c2.8-2.7,7.2-2.6,9.9,0.1l11.3,11.6l25.4-25.5c2.7-2.7,7.2-2.7,9.9,0c2.7,2.7,2.7,7.2,0,9.9
						l-30.4,30.5C384.8,389.4,383,390.2,381.2,390.2z"/>
				</g>
			</g>
			<g>
				<path class="st2" d="M653.4,355H459.5c-4.4,0-8-3.6-8-8s3.6-8,8-8h193.9c4.4,0,8,3.6,8,8S657.8,355,653.4,355z"/>
			</g>
			<g>
				<path class="st2" d="M619.1,391.2H459.5c-4.4,0-8-3.6-8-8s3.6-8,8-8h159.6c4.4,0,8,3.6,8,8S623.5,391.2,619.1,391.2z"/>
			</g>
		</g>
	</g>
	<g>
		<g>
			<g>
				<path class="st2" d="M388,527.1c-25.8,0-46.7-21-46.7-46.7c0-25.8,21-46.7,46.7-46.7c25.8,0,46.7,21,46.7,46.7
					C434.7,506.2,413.7,527.1,388,527.1z M388,437.7c-23.5,0-42.7,19.2-42.7,42.7s19.2,42.7,42.7,42.7c23.5,0,42.7-19.2,42.7-42.7
					S411.5,437.7,388,437.7z"/>
			</g>
			<g>
				<g>
					<path class="st3" d="M381.2,505.5C381.1,505.5,381.1,505.5,381.2,505.5c-1.9,0-3.7-0.8-5-2.1l-16.3-16.7
						c-2.7-2.8-2.6-7.2,0.1-9.9c2.8-2.7,7.2-2.6,9.9,0.1l11.3,11.6l25.4-25.5c2.7-2.7,7.2-2.7,9.9,0c2.7,2.7,2.7,7.2,0,9.9
						l-30.4,30.5C384.8,504.8,383,505.5,381.2,505.5z"/>
				</g>
			</g>
			<g>
				<path class="st2" d="M653.4,470.3H459.5c-4.4,0-8-3.6-8-8s3.6-8,8-8h193.9c4.4,0,8,3.6,8,8S657.8,470.3,653.4,470.3z"/>
			</g>
			<g>
				<path class="st2" d="M619.1,506.5H459.5c-4.4,0-8-3.6-8-8s3.6-8,8-8h159.6c4.4,0,8,3.6,8,8S623.5,506.5,619.1,506.5z"/>
			</g>
		</g>
	</g>
	<g>
		<g>
			<g>
				<path class="st2" d="M388,642.5c-25.8,0-46.7-21-46.7-46.7c0-25.8,21-46.7,46.7-46.7c25.8,0,46.7,21,46.7,46.7
					C434.7,621.5,413.7,642.5,388,642.5z M388,553c-23.5,0-42.7,19.2-42.7,42.7s19.2,42.7,42.7,42.7c23.5,0,42.7-19.2,42.7-42.7
					S411.5,553,388,553z"/>
			</g>
			<g>
				<g>
					<path class="st3" d="M381.2,620.9C381.1,620.9,381.1,620.9,381.2,620.9c-1.9,0-3.7-0.8-5-2.1L359.8,602
						c-2.7-2.8-2.6-7.2,0.1-9.9c2.8-2.7,7.2-2.6,9.9,0.1l11.3,11.6l25.4-25.5c2.7-2.7,7.2-2.7,9.9,0c2.7,2.7,2.7,7.2,0,9.9
						l-30.4,30.5C384.8,620.1,383,620.9,381.2,620.9z"/>
				</g>
			</g>
			<g>
				<path class="st2" d="M653.4,585.7H459.5c-4.4,0-8-3.6-8-8s3.6-8,8-8h193.9c4.4,0,8,3.6,8,8S657.8,585.7,653.4,585.7z"/>
			</g>
			<g>
				<path class="st2" d="M619.1,621.9H459.5c-4.4,0-8-3.6-8-8s3.6-8,8-8h159.6c4.4,0,8,3.6,8,8S623.5,621.9,619.1,621.9z"/>
			</g>
		</g>
	</g>
	<g>
		<g>
			<path class="st4" d="M205.1,188.7c0,4.4-0.1,9.7-6.7,11.7c0,0-0.3,3.7-1,12.3c0,0-1.8-8.5-3.9-10.6c-3.3,0.5-14.3,1.3-25.5-1.5
				c0,0-6.8,3.2-9.6,3.6c-2.8,0.4-3.8,1.5-4.3,7.3c-2.4-2.1-6.8-1.2-6.8,4.6s4.2,7.7,6,7.7c-0.3,6.3,3.4,12.7,3.4,12.7
				c-2.8-1.9-15.1-11.8-15.1-32.7c0-26.1,14.6-32.3,25.5-32.3c10.9,0,17.4,3.8,17.4,3.8s0.8,0,4.8,0
				C195.8,175.1,205.1,177.1,205.1,188.7z"/>
			<path class="st5" d="M193.5,202.1c2.2,2.1,3.9,10.6,3.9,10.6c-0.8,8.7-2.9,15.7-4.4,22.3c-1.5,6.7-7.3,11.7-14.8,10.4
				c-0.3,2.8,4.2,3.3,7.5,3.5c0,9.4-4.8,13.5-15.5,13.5s-26.1-4.9-26.1-14.1c10-0.6,12.6-4.9,12.6-12c0,0-3.7-6.3-3.4-12.7
				c-1.8,0-6-1.9-6-7.7s4.4-6.7,6.8-4.6c0.6-5.8,1.5-6.8,4.3-7.3c2.8-0.4,9.6-3.6,9.6-3.6C179.2,203.4,190.3,202.6,193.5,202.1z"/>
			<path class="st6" d="M217.5,421.8c0,2.7-1.4,4.6-3.9,6c-5.6,3.1-16.5,3.3-27.5,3.8c-15.7,0.7-19.5,3.6-37.2,3.6
				c-14,0-21.2-2.4-24.8-6.3c-5.5-6-2.6-15.4-2.4-25c0.3-15.9,2.8-47.1,2.8-53.9c0-26.8-15.5-38.5-15.5-38.5s-26,4.5-47.3,4.5
				c-45.5,0-60-44.7-60-67.6c0,0,0-4.3,0-10.5s8.2-6.3,12.1-6.2c3.9,0.1,5.1,0.7,5.3,2.8c0.3,2.1,2.3,11.1,10.5,24.7
				c8.3,13.6,21.6,22.6,31.4,22.6c9.7,0,22-6.9,37.6-18.7s30.4-14.7,42.8-14.7c1,0,1.9,0,2.8-0.1c0,9.2,15.3,14.1,26.1,14.1
				s15.5-4.1,15.5-13.5c1.2,0,2.3,0,2.9,0c21.2,0,20.9,11.5,39.2,11.5c21.1,0,23.4-15.6,23.4-31.6s-4.2-50.1-4.2-65.8
				c0-15.7,5.8-12.3,11.6-11.8c5.8,0.4,7.9,3.3,9.3,11.2c1.4,7.9,9.2,56.6,9.2,84.4c0,41.1-34.2,52.3-55,56.6c0.5,6.6-9,40.1-9,72.1
				S217.5,412.8,217.5,421.8z"/>
			<path class="st7" d="M207.3,717.4c0,0,2.5,3.1,6.8,6.1c4.3,3,11.9,7,11.9,11.3c0,4.3-10.4,2.8-14.3,2.8c-3.8,0-17.8-9.8-17.8-9.8
				s0.3-4,0.7-10.7h0c6.5,0.3,9.5,3.6,9.5,3.6L207.3,717.4z"/>
			<path class="st7" d="M27.4,526.7c13,0,11,4.7,11,4.7c-6.5,0.4-11.3,7.2-11.3,7.2s2.4,1.6,5.8,4c-5.1,0.8-32.9-0.8-32.9-7.5
				C0,528.5,14.4,526.7,27.4,526.7z"/>
			<path class="st8" d="M223.5,472.3c3,9.3,12.8,41.3,12.8,88c0,46.7-16.6,103-17.7,107c-1.1,4-11.3,50.1-11.3,50.1l-3.2,3.3
				c0,0-3-3.3-9.5-3.6h0c1.7-26.5,5.8-95.4,5.8-128.2c0-37.4-14.9-72-25.6-100.1c-4.1,8.6-8.9,47.3-19.1,76.1s-12.8,32.4-23.1,32.4
				c-20.8,0-70.1-34.4-75.1-37.8c-3.5-2.3-16.9-11.5-24.7-16.9c-3.4-2.4-5.8-4-5.8-4s4.9-6.8,11.3-7.2c0.2,0,0.4,0,0.6,0
				c8.5,0,79.4,24.5,79.4,24.5s-1.5-39.4-1.5-75.3s7.2-51.8,7.2-51.8c3.6,3.9,10.8,6.3,24.8,6.3c17.7,0,21.5-2.9,37.2-3.6
				c11-0.5,21.9-0.7,27.5-3.8c2.2-1,2.6,4,2.9,7.4S220.5,463,223.5,472.3z"/>
		</g>
		<g>
			<path class="st5" d="M23,209.4c0,9.5-5.8,18.7-6.4,21.7c-0.6,3-1.7,6.4-6.8,6.4s-9.8-14.1-9.8-25.6c0-5.8,6.5-10.8,13.8-10.8
				C20.1,201.1,23,204,23,209.4z"/>
			<path class="st5" d="M248.4,120.9c5.9,0,14.6,1.2,12.8,11.3c0,5.1-0.9,12.3-0.9,14.2s1.1,7,1.1,10s-0.7,5.8-7.3,5.8
				s-4.8-10.9-10.1-16.6s-5.6-10.1-5.6-14.3C238.4,127.1,239.1,120.9,248.4,120.9z"/>
		</g>
	</g>
</g>
</svg>
